<?xml version="1.0" encoding="UTF-8" standalone="no"?>
<!-- Created with Inkscape (http://www.inkscape.org/) -->

<svg
   xmlns:dc="http://purl.org/dc/elements/1.1/"
   xmlns:cc="http://creativecommons.org/ns#"
   xmlns:rdf="http://www.w3.org/1999/02/22-rdf-syntax-ns#"
   xmlns:svg="http://www.w3.org/2000/svg"
   xmlns="http://www.w3.org/2000/svg"
   version="1.1"
   width="384"
   height="424.00101"
   viewBox="0 0 384 424.00101"
   id="Layer_1"
   xml:space="preserve"><metadata
   id="metadata3045"><rdf:RDF><cc:Work
       rdf:about=""><dc:format>image/svg+xml</dc:format><dc:type
         rdf:resource="http://purl.org/dc/dcmitype/StillImage" /><dc:title></dc:title></cc:Work></rdf:RDF></metadata><defs
   id="defs3043" />
<g
   transform="translate(-64,-44)"
   id="Icon_33_">
	<g
   id="g3037">
		<path
   d="m 383.822,344.427 c -16.045,0 -31.024,5.326 -41.721,15.979 l -152.957,-88.42 c 1.071,-5.328 2.142,-9.593 2.142,-14.919 0,-5.328 -1.071,-9.593 -2.142,-14.919 l 150.826,-87.35 c 11.762,10.653 26.741,17.041 43.852,17.041 35.295,0 64.178,-28.766 64.178,-63.92 C 448,72.767 419.117,44 383.822,44 c -35.297,0 -64.179,28.767 -64.179,63.92 0,5.327 1.065,9.593 2.142,14.919 l -150.821,87.35 c -11.767,-10.654 -26.741,-17.041 -43.856,-17.041 -35.296,0 -63.108,28.766 -63.108,63.92 0,35.153 28.877,63.92 64.178,63.92 17.115,0 32.089,-6.389 43.856,-17.042 l 151.891,88.421 c -1.076,4.255 -2.141,8.521 -2.141,13.847 0,34.094 27.806,61.787 62.037,61.787 34.229,0 62.036,-27.693 62.036,-61.787 10e-4,-34.094 -27.805,-61.787 -62.035,-61.787 z"
   id="path3039" />
	</g>
</g>
</svg>