<?xml version="1.0" encoding="UTF-8" standalone="no"?>
<!-- Generator: Adobe Illustrator 16.2.1, SVG Export Plug-In . SVG Version: 6.00 Build 0)  -->

<svg
   xmlns:dc="http://purl.org/dc/elements/1.1/"
   xmlns:cc="http://creativecommons.org/ns#"
   xmlns:rdf="http://www.w3.org/1999/02/22-rdf-syntax-ns#"
   xmlns:svg="http://www.w3.org/2000/svg"
   xmlns="http://www.w3.org/2000/svg"
   xmlns:sodipodi="http://sodipodi.sourceforge.net/DTD/sodipodi-0.dtd"
   xmlns:inkscape="http://www.inkscape.org/namespaces/inkscape"
   version="1.1"
   id="Layer_1"
   x="0px"
   y="0px"
   width="416"
   height="416"
   viewBox="0 0 416 416"
   xml:space="preserve"
   inkscape:version="0.48.4 r9943 custom"
   sodipodi:docname="chatbox-working.svg"><metadata
   id="metadata3039"><rdf:RDF><cc:Work
       rdf:about=""><dc:format>image/svg+xml</dc:format><dc:type
         rdf:resource="http://purl.org/dc/dcmitype/StillImage" /></cc:Work></rdf:RDF></metadata><defs
   id="defs3037" /><sodipodi:namedview
   pagecolor="#ffffff"
   bordercolor="#666666"
   borderopacity="1"
   objecttolerance="10"
   gridtolerance="10"
   guidetolerance="10"
   inkscape:pageopacity="0"
   inkscape:pageshadow="2"
   inkscape:window-width="850"
   inkscape:window-height="689"
   id="namedview3035"
   showgrid="false"
   fit-margin-top="0"
   fit-margin-left="0"
   fit-margin-right="0"
   fit-margin-bottom="0"
   inkscape:zoom="0.4609375"
   inkscape:cx="208"
   inkscape:cy="208"
   inkscape:window-x="0"
   inkscape:window-y="22"
   inkscape:window-maximized="0"
   inkscape:current-layer="Layer_1" />
<path
   d="M 76.3,352 H 229 c 14.4,0 14.4,0.1 21.3,5.2 6.9,5.1 85.7,58.8 85.7,58.8 v -64 h 3.7 c 42.2,0 76.3,-31.8 76.3,-71.4 V 71.7 C 416,32.1 381.8,0 339.7,0 H 76.3 C 34.2,0 0,32.1 0,71.7 V 280.6 C 0,320.2 34.2,352 76.3,352 z M 304.1,144 c 17.7,0 32,14.3 32,32 0,17.7 -14.3,32 -32,32 -17.7,0 -32,-14.3 -32,-32 0,-17.7 14.3,-32 32,-32 z m -96,0 c 17.7,0 32,14.3 32,32 0,17.7 -14.3,32 -32,32 -17.7,0 -32,-14.3 -32,-32 0,-17.7 14.3,-32 32,-32 z m -96,0 c 17.7,0 32,14.3 32,32 0,17.7 -14.3,32 -32,32 -17.7,0 -32,-14.3 -32,-32 0,-17.7 14.3,-32 32,-32 z"
   id="path3033"
   inkscape:connector-curvature="0" />
</svg>