<?xml version="1.0" encoding="UTF-8" standalone="no"?>
<!-- Created with Inkscape (http://www.inkscape.org/) -->

<svg
   xmlns:dc="http://purl.org/dc/elements/1.1/"
   xmlns:cc="http://creativecommons.org/ns#"
   xmlns:rdf="http://www.w3.org/1999/02/22-rdf-syntax-ns#"
   xmlns:svg="http://www.w3.org/2000/svg"
   xmlns="http://www.w3.org/2000/svg"
   version="1.1"
   width="448.04071"
   height="448.0383"
   viewBox="0 0 448.04071 448.0383"
   id="Layer_1"
   xml:space="preserve"><metadata
   id="metadata3204"><rdf:RDF><cc:Work
       rdf:about=""><dc:format>image/svg+xml</dc:format><dc:type
         rdf:resource="http://purl.org/dc/dcmitype/StillImage" /><dc:title></dc:title></cc:Work></rdf:RDF></metadata><defs
   id="defs3202" />
<g
   transform="translate(-31.980857,-31.980857)"
   id="g3196">
	<path
   d="M 480,253 C 478.3,129.3 376.7,30.4 253,32 129.3,33.6 30.4,135.3 32,259 33.7,382.7 135.3,481.6 259,480 382.7,478.3 481.7,376.7 480,253 z M 256,111.9 c 17.7,0 32,14.3 32,32 0,17.7 -14.3,32 -32,32 -17.7,0 -32,-14.3 -32,-32 0,-17.7 14.3,-32 32,-32 z M 300,395 h -88 v -11 h 22 V 224 h -22 v -12 h 66 v 172 h 22 v 11 z"
   id="path3198" />
</g>
</svg>