<?xml version="1.0" encoding="UTF-8" standalone="no"?>
<!-- Created with Inkscape (http://www.inkscape.org/) -->

<svg
   xmlns:dc="http://purl.org/dc/elements/1.1/"
   xmlns:cc="http://creativecommons.org/ns#"
   xmlns:rdf="http://www.w3.org/1999/02/22-rdf-syntax-ns#"
   xmlns:svg="http://www.w3.org/2000/svg"
   xmlns="http://www.w3.org/2000/svg"
   version="1.1"
   width="556.40625"
   height="556.40625"
   viewBox="0 0 556.40625 556.40625"
   id="Layer_1"
   xml:space="preserve"><metadata
   id="metadata3043"><rdf:RDF><cc:Work
       rdf:about=""><dc:format>image/svg+xml</dc:format><dc:type
         rdf:resource="http://purl.org/dc/dcmitype/StillImage" /><dc:title></dc:title></cc:Work></rdf:RDF></metadata><defs
   id="defs3041" />
<g
   transform="translate(22.201263,22.200745)"
   id="g3035"
   style="display:inline">
	<path
   d="m 592.27118,258.16949 a 277.69492,277.69492 0 1 1 -555.389832,0 277.69492,277.69492 0 1 1 555.389832,0 z"
   transform="translate(-58.576263,-2.1694946)"
   id="path3898"
   style="fill:#ffffff;fill-opacity:1;fill-rule:evenodd;stroke:#000000;stroke-opacity:1" /><path
   d="M 480,253 C 478.3,129.3 376.7,30.4 253,32 129.3,33.6 30.4,135.3 32,259 33.7,382.7 135.3,481.6 259,480 382.7,478.3 481.7,376.7 480,253 z M 256,111.9 c 17.7,0 32,14.3 32,32 0,17.7 -14.3,32 -32,32 -17.7,0 -32,-14.3 -32,-32 0,-17.7 14.3,-32 32,-32 z M 300,395 h -88 v -11 h 22 V 224 h -22 v -12 h 66 v 172 h 22 v 11 z"
   id="path3037"
   style="fill:#000000;fill-opacity:1" />
</g>
</svg>