<?xml version="1.0" encoding="UTF-8" standalone="no"?>
<!-- Created with Inkscape (http://www.inkscape.org/) -->

<svg
   xmlns:dc="http://purl.org/dc/elements/1.1/"
   xmlns:cc="http://creativecommons.org/ns#"
   xmlns:rdf="http://www.w3.org/1999/02/22-rdf-syntax-ns#"
   xmlns:svg="http://www.w3.org/2000/svg"
   xmlns="http://www.w3.org/2000/svg"
   version="1.1"
   width="384"
   height="384"
   viewBox="0 0 384 384"
   id="Layer_1"
   xml:space="preserve"><metadata
   id="metadata3657"><rdf:RDF><cc:Work
       rdf:about=""><dc:format>image/svg+xml</dc:format><dc:type
         rdf:resource="http://purl.org/dc/dcmitype/StillImage" /><dc:title></dc:title></cc:Work></rdf:RDF></metadata><defs
   id="defs3655" />
<path
   d="M 384,360.7 270.7,247.3 C 291.5,221.3 304,188.2 304,152.2 304,68.1 235.9,0 152,0 68,0 0,68.2 0,152.2 c 0,84 68.1,152.2 152,152.2 36.2,0 69.4,-12.7 95.5,-33.8 L 360.7,384 384,360.7 z M 55.8,248.6 C 30.1,222.9 16,188.7 16,152.3 16,115.9 30.2,81.7 55.8,56 81.4,30.3 115.7,16 152,16 c 36.3,0 70.5,14.2 96.2,39.9 25.7,25.7 39.8,59.9 39.8,96.3 0,36.4 -14.2,70.6 -39.8,96.3 -25.7,25.7 -59.9,39.9 -96.2,39.9 -36.3,0.1 -70.5,-14.1 -96.2,-39.8 z"
   id="path3651" />
</svg>