<?xml version="1.0" encoding="UTF-8" standalone="no"?>
<!-- Created with Inkscape (http://www.inkscape.org/) -->

<svg
   xmlns:dc="http://purl.org/dc/elements/1.1/"
   xmlns:cc="http://creativecommons.org/ns#"
   xmlns:rdf="http://www.w3.org/1999/02/22-rdf-syntax-ns#"
   xmlns:svg="http://www.w3.org/2000/svg"
   xmlns="http://www.w3.org/2000/svg"
   version="1.1"
   width="414.1875"
   height="414.1875"
   viewBox="0 0 414.1875 414.1875"
   id="Layer_1"
   xml:space="preserve"><metadata
   id="metadata3657"><rdf:RDF><cc:Work
       rdf:about=""><dc:format>image/svg+xml</dc:format><dc:type
         rdf:resource="http://purl.org/dc/dcmitype/StillImage" /><dc:title></dc:title></cc:Work></rdf:RDF></metadata><defs
   id="defs3655" />
<path
   d="M 396.5,373.2 283.2,259.8 c 20.8,-26 33.3,-59.1 33.3,-95.1 0,-84.1 -68.1,-152.2 -152,-152.2 -84,0 -152,68.2 -152,152.2 0,84 68.1,152.2 152,152.2 36.2,0 69.4,-12.7 95.5,-33.8 l 113.2,113.4 23.3,-23.3 z M 68.3,261.1 C 42.6,235.4 28.5,201.2 28.5,164.8 c 0,-36.4 14.2,-70.6 39.8,-96.3 25.6,-25.7 59.9,-40 96.2,-40 36.3,0 70.5,14.2 96.2,39.9 25.7,25.7 39.8,59.9 39.8,96.3 0,36.4 -14.2,70.6 -39.8,96.3 -25.7,25.7 -59.9,39.9 -96.2,39.9 C 128.2,301 94,286.8 68.3,261.1 z"
   id="path3651"
   style="stroke:#000000;stroke-width:25;stroke-miterlimit:4;stroke-opacity:1;stroke-dasharray:none" />
</svg>