<?xml version="1.0" encoding="UTF-8" standalone="no"?>
<!-- Created with Inkscape (http://www.inkscape.org/) -->

<svg
   xmlns:dc="http://purl.org/dc/elements/1.1/"
   xmlns:cc="http://creativecommons.org/ns#"
   xmlns:rdf="http://www.w3.org/1999/02/22-rdf-syntax-ns#"
   xmlns:svg="http://www.w3.org/2000/svg"
   xmlns="http://www.w3.org/2000/svg"
   version="1.1"
   width="384"
   height="384.00101"
   viewBox="0 0 384 384.00101"
   id="Layer_1"
   xml:space="preserve"><metadata
   id="metadata3093"><rdf:RDF><cc:Work
       rdf:about=""><dc:format>image/svg+xml</dc:format><dc:type
         rdf:resource="http://purl.org/dc/dcmitype/StillImage" /><dc:title></dc:title></cc:Work></rdf:RDF></metadata><defs
   id="defs3091" />
<path
   d="m 352.349,192.046 c -10e-4,-21.013 13.143,-38.948 31.651,-46.062 -4.887,-20.466 -12.957,-39.7 -23.664,-57.139 -6.375,2.836 -13.23,4.254 -20.082,4.254 -12.621,0 -25.238,-4.811 -34.871,-14.442 C 290.52,63.794 287.135,41.811 295.203,23.687 277.768,12.973 258.54,4.895 238.074,0 230.971,18.529 213.027,31.69 192,31.69 170.975,31.69 153.031,18.529 145.927,0 125.461,4.895 106.234,12.973 88.799,23.688 96.867,41.81 93.482,63.792 78.618,78.658 68.987,88.289 56.368,93.101 43.747,93.101 36.893,93.101 30.041,91.682 23.664,88.846 12.958,106.284 4.886,125.517 0,145.984 c 18.509,7.112 31.652,25.049 31.652,46.062 0,21.008 -13.132,38.936 -31.63,46.054 4.898,20.466 12.976,39.692 23.692,57.128 6.361,-2.821 13.198,-4.232 20.032,-4.232 12.622,0 25.239,4.812 34.871,14.443 14.841,14.841 18.239,36.781 10.215,54.889 17.438,10.71 36.664,18.783 57.13,23.673 7.128,-18.479 25.046,-31.596 46.038,-31.596 20.992,0 38.91,13.115 46.037,31.596 20.468,-4.89 39.693,-12.964 57.132,-23.675 -8.023,-18.106 -4.626,-40.046 10.216,-54.887 9.629,-9.632 22.248,-14.444 34.868,-14.444 6.836,0 13.67,1.411 20.033,4.233 10.716,-17.436 18.794,-36.662 23.692,-57.128 -18.498,-7.119 -31.629,-25.048 -31.629,-46.054 z M 192.9,271.9 c -44.3,0 -80,-35.9 -80,-80 0,-44.101 35.7,-80 80,-80 44.299,0 80,35.899 80,80 0,44.1 -35.701,80 -80,80 z"
   id="path3087" />
</svg>