<?xml version="1.0" encoding="UTF-8" standalone="no"?>
<!-- Created with Inkscape (http://www.inkscape.org/) -->

<svg
   xmlns:dc="http://purl.org/dc/elements/1.1/"
   xmlns:cc="http://creativecommons.org/ns#"
   xmlns:rdf="http://www.w3.org/1999/02/22-rdf-syntax-ns#"
   xmlns:svg="http://www.w3.org/2000/svg"
   xmlns="http://www.w3.org/2000/svg"
   xmlns:sodipodi="http://sodipodi.sourceforge.net/DTD/sodipodi-0.dtd"
   xmlns:inkscape="http://www.inkscape.org/namespaces/inkscape"
   version="1.1"
   width="375.43109"
   height="376.30875"
   viewBox="0 0 375.43109 376.30875"
   id="Layer_1"
   xml:space="preserve"
   inkscape:version="0.48.4 r9943 custom"
   sodipodi:docname="mr-call.svg"><sodipodi:namedview
     pagecolor="#ffffff"
     bordercolor="#666666"
     borderopacity="1"
     objecttolerance="10"
     gridtolerance="10"
     guidetolerance="10"
     inkscape:pageopacity="0"
     inkscape:pageshadow="2"
     inkscape:window-width="1019"
     inkscape:window-height="738"
     id="namedview3291"
     showgrid="false"
     inkscape:zoom="0.6271446"
     inkscape:cx="186.12102"
     inkscape:cy="251.93552"
     inkscape:window-x="103"
     inkscape:window-y="22"
     inkscape:window-maximized="0"
     inkscape:current-layer="g4139" /><metadata
     id="metadata9"><rdf:RDF><cc:Work
         rdf:about=""><dc:format>image/svg+xml</dc:format><dc:type
           rdf:resource="http://purl.org/dc/dcmitype/StillImage" /><dc:title></dc:title></cc:Work></rdf:RDF></metadata><defs
     id="defs7" /><g
     transform="translate(-70.300135,-78.435335)"
     id="g4139"
     style="display:inline"><path
       d="M 352.44152,373.02851 C 340.1808,360.33975 305.33014,336.5695 282.48828,336.5695 c -5.29057,0 -9.90935,1.18428 -13.68832,3.63743 -11.169,7.1903 -20.07062,12.77335 -24.35346,12.77335 -2.35137,0 -4.8707,-2.11479 -10.4132,-6.93653 l -0.92377,-0.84591 c -15.36787,-13.45008 -18.64298,-16.91834 -24.6054,-23.17811 l -1.51158,-1.60724 c -1.09171,-1.0997 -2.01546,-2.11481 -2.93921,-3.04531 -5.2066,-5.41387 -8.9856,-9.30509 -22.338,-24.53159 l -0.58784,-0.67673 c -6.38229,-7.27488 -10.58117,-12.01202 -10.83309,-15.48028 -0.25195,-3.38366 2.68728,-8.88212 10.16127,-19.11771 9.06957,-12.35039 9.40547,-27.57689 1.09169,-45.25655 -6.63421,-13.95764 -17.4673,-27.32312 -27.04074,-39.08136 l -0.83977,-1.0151 c -8.2298,-10.151 -17.80321,-15.2265 -28.46836,-15.2265 -11.84082,0 -21.66617,6.42897 -26.87278,9.81263 -0.41989,0.25377 -0.83976,0.59213 -1.25966,0.84592 -11.67288,7.44407 -20.154602,17.67966 -23.345732,28.08443 -4.786719,15.64946 -7.977864,35.95147 14.947982,78.16271 19.81868,36.54362 37.78986,61.07521 66.34219,90.5977 26.87278,27.74607 38.79759,36.71278 65.50242,56.16888 29.72803,21.65546 58.28036,34.09044 78.267,34.09044 18.55902,0 33.17107,0 53.99751,-25.29292 21.83413,-26.56177 12.76457,-42.80339 -0.33591,-56.42264 z"
       id="path3"
       style="fill:#000000;fill-opacity:1;fill-rule:nonzero;stroke:#000000;stroke-opacity:1"
       inkscape:connector-curvature="0" /><path
       inkscape:connector-curvature="0"
       d="m 366.18172,298.84052 c -5.16188,-34.15326 -20.85965,-67.24586 -47.23473,-93.62094 -26.44579,-26.44579 -59.46768,-42.07285 -93.62094,-47.23473 l -3.60624,25.24371 c 28.99138,4.38406 56.92209,17.60696 79.26667,39.95153 22.34457,22.34458 35.56747,50.2753 39.95153,79.26667 l 25.24371,-3.60624 z"
       id="path3361" /><path
       inkscape:connector-curvature="0"
       d="M 445.73124,284.34483 C 438.16519,234.35238 415.32564,186.05699 376.71761,147.44896 338.10958,108.84093 289.81419,86.001378 239.82174,78.435335 l -3.60624,25.243715 c 44.75986,6.71751 87.96408,27.1529 122.5416,61.73042 34.57752,34.57752 54.9422,77.71103 61.73042,122.5416 l 25.24372,-3.60624 z"
       id="path3363" /></g></svg>