<?xml version="1.0" encoding="UTF-8" standalone="no"?>
<!-- Generator: Adobe Illustrator 16.2.1, SVG Export Plug-In . SVG Version: 6.00 Build 0)  -->

<svg
   xmlns:dc="http://purl.org/dc/elements/1.1/"
   xmlns:cc="http://creativecommons.org/ns#"
   xmlns:rdf="http://www.w3.org/1999/02/22-rdf-syntax-ns#"
   xmlns:svg="http://www.w3.org/2000/svg"
   xmlns="http://www.w3.org/2000/svg"
   xmlns:sodipodi="http://sodipodi.sourceforge.net/DTD/sodipodi-0.dtd"
   xmlns:inkscape="http://www.inkscape.org/namespaces/inkscape"
   version="1.1"
   id="Layer_1"
   x="0px"
   y="0px"
   width="512px"
   height="512px"
   viewBox="0 0 512 512"
   style="enable-background:new 0 0 512 512;"
   xml:space="preserve"
   inkscape:version="0.91 r13725"
   sodipodi:docname="hangup_custom.svg"><metadata
     id="metadata9"><rdf:RDF><cc:Work
         rdf:about=""><dc:format>image/svg+xml</dc:format><dc:type
           rdf:resource="http://purl.org/dc/dcmitype/StillImage" /><dc:title /></cc:Work></rdf:RDF></metadata><defs
     id="defs7"><clipPath
       clipPathUnits="userSpaceOnUse"
       id="clipPath3355"><g
         id="g3357"><polygon
           points="71,192 71,320 175.3,320 270,407.7 270,104.4 175.3,192 "
           id="polygon3359" /><path
           d="m 326.3,355.6 c 20.5,-27.8 32.8,-62.3 32.8,-99.6 0,-37.4 -12.3,-71.8 -32.8,-99.6 l -20.4,15.3 c 17.4,23.6 27.8,52.7 27.8,84.3 0,31.6 -10.4,60.7 -27.8,84.3 l 20.4,15.3 z"
           id="path3361"
           inkscape:connector-curvature="0" /><path
           d="m 392.8,401.6 c 30,-40.7 48,-91 48,-145.6 0,-54.6 -18,-104.9 -48,-145.6 l -20.4,15.3 c 26.9,36.4 43,81.4 43,130.3 0,48.9 -16.1,93.8 -43,130.3 l 20.4,15.3 z"
           id="path3363"
           inkscape:connector-curvature="0" /></g></clipPath></defs><sodipodi:namedview
     pagecolor="#ffffff"
     bordercolor="#666666"
     borderopacity="1"
     objecttolerance="10"
     gridtolerance="10"
     guidetolerance="10"
     inkscape:pageopacity="0"
     inkscape:pageshadow="2"
     inkscape:window-width="1920"
     inkscape:window-height="1017"
     id="namedview5"
     showgrid="false"
     inkscape:zoom="0.4609375"
     inkscape:cx="-483.79662"
     inkscape:cy="256"
     inkscape:window-x="-8"
     inkscape:window-y="-8"
     inkscape:window-maximized="1"
     inkscape:current-layer="Layer_1" /><path
     d="m 112.293,313.47527 c 17.64196,0.30267 59.09319,-7.53236 75.24482,-23.684 3.741,-3.74099 6.16957,-7.84438 7.10707,-12.25116 2.81336,-12.98197 5.15995,-23.22419 8.18836,-26.25261 1.66267,-1.66267 4.93949,-1.94872 12.26812,-2.45838 l 1.25134,-0.055 c 20.37738,-1.35609 25.14567,-1.21951 33.78806,-1.00925 l 2.20534,0.0676 c 1.54955,0.006 2.92054,0.0702 4.23169,0.075 7.50981,0.14656 12.93347,0.2259 33.14181,1.5511 l 0.89417,0.0628 c 9.65708,0.63116 15.9758,1.01177 18.60638,3.28606 2.57075,2.21446 4.38041,8.1808 6.33316,20.70336 2.31989,15.14621 12.84912,26.15049 31.22927,32.77316 14.56063,5.17845 31.67161,6.96911 46.75538,8.51401 l 1.31158,0.12397 c 12.9972,1.3585 23.35554,-1.82202 30.89694,-9.36342 8.37272,-8.37271 10.77433,-19.86625 12.06335,-25.94049 0.11747,-0.47635 0.1751,-1.0125 0.29256,-1.48887 2.99022,-13.51773 1.75005,-26.75286 -3.35077,-36.36662 -7.68111,-14.45056 -19.78032,-31.06273 -65.8392,-44.69956 -39.85416,-11.82632 -69.90816,-16.46524 -110.97326,-17.15123 -38.62136,-0.61751 -53.39389,1.47418 -86.0346,6.59981 -36.33362,5.70817 -65.31603,17.10485 -79.448716,31.23754 -13.123197,13.12321 -23.455477,23.45549 -20.29721,56.0668 3.342957,34.22107 21.240664,39.29248 40.134356,39.65931 z"
     id="path3"
     inkscape:connector-curvature="0"
     style="fill:#000000" /></svg>