<?xml version="1.0" encoding="UTF-8" standalone="no"?>
<!-- Created with Inkscape (http://www.inkscape.org/) -->

<svg
   xmlns:dc="http://purl.org/dc/elements/1.1/"
   xmlns:cc="http://creativecommons.org/ns#"
   xmlns:rdf="http://www.w3.org/1999/02/22-rdf-syntax-ns#"
   xmlns:svg="http://www.w3.org/2000/svg"
   xmlns="http://www.w3.org/2000/svg"
   version="1.1"
   width="448.03046"
   height="447.9581"
   viewBox="0 0 448.03046 447.9581"
   id="Layer_1"
   xml:space="preserve"><metadata
   id="metadata3189"><rdf:RDF><cc:Work
       rdf:about=""><dc:format>image/svg+xml</dc:format><dc:type
         rdf:resource="http://purl.org/dc/dcmitype/StillImage" /><dc:title></dc:title></cc:Work></rdf:RDF></metadata><defs
   id="defs3187" />
<path
   d="m 429.94174,82.956476 -56.5,56.700004 -55.1,-10 -9.9,-55.100004 56.5,-56.7 c -12.7,-12.6999998 -30.8,-18.49999983 -44.2,-17.79999983 -13.5,0.7 -42.3,8.30000003 -64.6,31.99999983 -21.6,22.8 -44.3,65.3 -24.2,112.500004 2.4,5.7 5.1,13.2 -2.9,21.2 -8.1,8 -214.999995,202.8 -214.999995,202.8 -19.4000002,16.7 -18.0000002,47.6 -0.1,65.6 18.2,17.9 48.9,19 65.6,-0.3 0,0 193.199995,-205.8 202.699995,-215.1 8.5,-8.3 16.1,-5.5 21.2,-2.9 35.6,18.4 86.3,2.4 112.6,-23.9 26.3,-26.3 31.1,-51.7 31.9,-64.7 0.8,-12.9 -3.7,-30.000004 -18,-44.300004 z M 59.341745,411.25648 c -6.3,6.2 -16.5,6.2 -22.7,0 -6.2,-6.3 -6.2,-16.5 0,-22.7 6.3,-6.2 16.5,-6.2 22.7,0 6.2,6.3 6.2,16.5 0,22.7 z"
   id="path3183" />
</svg>